<svg width="148" height="99" viewBox="0 0 148 99" fill="none" xmlns="http://www.w3.org/2000/svg">
<path d="M147.992 32.9614V35.1864C147.818 35.269 147.595 35.3676 147.372 35.4664L141.846 37.988C141.475 38.1529 141.029 38.3505 140.583 38.565C138.278 39.5865 135.28 40.9545 133.298 41.8281L84.804 63.764L83.2676 64.4562L78.7577 66.4998C78.1876 66.7469 77.5188 66.9447 76.7753 67.0766C76.4778 67.1423 76.131 67.1754 75.8089 67.2083C75.7592 67.2247 75.7098 67.2247 75.6852 67.2247C75.1152 67.2742 74.5455 67.2742 74 67.2578C73.4548 67.2742 72.8851 67.2742 72.315 67.2247C71.9436 67.1916 71.5716 67.1421 71.2247 67.0764C70.4812 66.9447 69.8123 66.7467 69.2423 66.4996L67.2105 65.5765L64.7327 64.456L14.7023 41.8283C14.1571 41.581 13.5377 41.3008 12.8439 41.0042C11.1095 40.2296 9.07742 39.3067 7.41705 38.5652C6.97102 38.3507 6.525 38.1531 6.15327 37.9882L0.627548 35.4666C0.404681 35.3678 0.181525 35.269 0.00808716 35.1866V32.9616C0.00808716 32.5826 0.0823762 32.286 0.206384 32.0058C0.206384 31.9896 0.231243 31.9896 0.231243 31.9896C0.355251 31.9237 0.47897 31.8742 0.627548 31.808L2.41164 30.9839L6.15327 29.2864C8.5071 28.2318 12.3482 26.4848 14.702 25.4465L69.2423 0.774811C70.5558 0.214456 72.2902 -0.0492864 74 0.0166492C74.1734 0.0166492 74.322 0.000213623 74.4957 0.000213623H74.5206C76.057 0.000213623 77.5933 0.264149 78.758 0.775005L133.298 25.4465C135.256 26.3035 138.229 27.6549 140.534 28.6934C141.004 28.9074 141.45 29.1054 141.847 29.2864L145.588 30.9839L147.372 31.808C147.521 31.874 147.645 31.9235 147.769 31.9896C147.918 32.2694 147.992 32.5824 147.992 32.9614Z" fill="url(#paint0_linear_103_29)"/>
<path d="M148 42.8272V45.0394C147.819 45.125 147.587 45.2281 147.381 45.331L141.837 47.8518C139.491 48.8979 135.649 50.6468 133.303 51.6931L78.7701 76.3528C78.1773 76.6099 77.5066 76.7985 76.7848 76.9358C75.9084 77.1073 74.9285 77.1587 74.0003 77.1243C73.0721 77.1587 72.0922 77.1071 71.2158 76.9358C70.4937 76.7985 69.8233 76.6099 69.2305 76.3528L14.6974 51.6929C12.3511 50.6466 8.50915 48.8977 6.16312 47.8516L0.619188 45.331C0.413375 45.2279 0.180969 45.125 0.000305176 45.0394V42.8272C0.000305176 42.4499 0.0777739 42.1411 0.206696 41.8669C0.206696 41.8497 0.232422 41.8497 0.232422 41.8497C0.361344 41.7811 0.490266 41.7295 0.618899 41.6608L2.42409 40.8377L6.16283 39.14C8.50886 38.0939 12.3508 36.345 14.6971 35.2987L69.2302 10.6392C70.5451 10.0732 72.2983 9.81589 74 9.88453C75.7017 9.81589 77.4809 10.0731 78.7698 10.6392L133.303 35.2987C135.649 36.345 139.491 38.0939 141.837 39.14L145.576 40.8377L147.381 41.6608C147.51 41.7295 147.639 41.7809 147.768 41.8497C147.923 42.1239 148 42.4499 148 42.8272Z" fill="url(#paint1_linear_103_29)"/>
<path d="M75.8089 60.814V67.7688H75.5115L72.191 67.9171H0.00808716V33.6043C0.00808716 33.2253 0.0823762 32.9121 0.206384 32.6483C0.206384 32.6319 0.231243 32.6319 0.231243 32.6319C0.503829 32.0551 1.049 31.7254 1.76761 31.6431L4.8652 32.8626L6.32699 33.4394L12.9928 36.06L13.3396 36.1917L17.577 37.8563L65.7981 56.8749L65.8973 56.908L75.4621 60.6655L75.8089 60.814Z" fill="#CC8529"/>
<path d="M77.0973 65.0165C77.0973 65.033 76.6018 65.2638 75.8089 65.6428C75.3132 65.857 74.6937 66.1374 74 66.4669C73.6531 66.6152 73.2814 66.7799 72.8851 66.9613L72.315 67.2249L71.2247 67.7193L70.7538 67.9171L63.0474 71.3945C62.2297 71.757 61.4119 72.136 60.6687 72.4823C59.2564 73.125 58.0914 73.6523 57.6951 73.8171C57.1251 74.0972 54.7464 75.1687 52.3923 76.2397L39.5067 82.0575L39.457 82.0905L39.4325 82.107L7.81364 96.3794C7.26847 96.6267 6.67387 96.8903 6.10384 97.154C5.78153 97.3023 5.45952 97.4342 5.1375 97.5825H2.46136C1.02414 97.5825 0.206384 97.3682 0.0329465 97.0057C0.0329465 96.9893 0.0329465 96.9893 0.0329465 96.9893C0.0329465 96.9233 0.00808716 96.8738 0.0329465 96.7915C0.00808716 96.6925 0.00808716 96.5937 0.00808716 96.4782V33.6043C0.00808716 33.2253 0.0823762 32.9121 0.206384 32.6484C0.206384 32.6319 0.231243 32.6319 0.231243 32.6319C0.503829 32.0551 1.049 31.7254 1.76761 31.6431C1.99048 31.5936 2.18877 31.5936 2.41193 31.61C2.9571 31.6264 3.57656 31.7914 4.24574 32.088L13.0176 36.0434L13.3396 36.1917L17.131 37.9056C17.2053 37.9387 17.2796 37.9715 17.3539 38.0046C19.6831 39.0594 23.3505 40.724 25.6303 41.7457L69.9858 61.8027C70.0355 61.8191 70.0849 61.8358 70.1098 61.8522C70.1841 61.8853 70.2584 61.9181 70.3327 61.9512C70.9273 62.2147 71.4973 62.4787 72.0176 62.7092C72.8851 63.0881 73.5788 63.4178 74 63.6156C74.2477 63.7146 74.4214 63.7804 74.446 63.7968C74.5452 63.8461 75.1646 64.1265 75.8089 64.4395C75.8338 64.4395 75.8338 64.456 75.8584 64.456C76.5275 64.7692 77.0973 64.9999 77.0973 65.0165Z" fill="#F6B75A"/>
<path d="M147.961 33.2528C147.982 33.4461 148 33.8174 148 34.0779V95.9977C148 96.2582 148 96.5213 148 96.5826C148 96.6439 147.974 96.8239 147.974 96.857C147.974 96.8901 147.974 96.9171 147.974 96.9858C147.974 96.9858 147.974 96.9896 147.974 96.9943C147.974 96.9989 147.748 97.1341 147.471 97.2942C147.194 97.4545 145.232 97.5856 144.842 97.5856H143.577C143.187 97.5856 142.604 97.4672 142.28 97.3228L140.776 96.6482C140.452 96.5035 139.923 96.2661 139.6 96.1201L96.193 76.5009C95.8704 76.3551 95.3426 76.1165 95.02 75.9707L90.8795 74.0849C90.5581 73.9379 90.0311 73.6983 89.7088 73.5524L85.5428 71.6663C85.2211 71.5198 84.6936 71.2808 84.3707 71.1352L77.3707 67.9776C77.0479 67.832 76.5197 67.594 76.1966 67.4486L75.6953 67.2229C75.3724 67.0775 74.8426 66.8409 74.5183 66.697C74.5183 66.697 74.3347 66.6156 73.9994 66.4613C72.2202 65.6382 70.9053 65.0378 70.9053 65.0206C70.9053 65.0034 71.4727 64.7636 72.143 64.4548C72.8131 64.146 72.977 64.0708 72.977 64.0708C73.2981 63.9234 73.6016 63.7838 73.6511 63.7601C73.7008 63.7365 74.2607 63.4926 74.5801 63.3439C74.5801 63.3439 76.0616 62.6542 77.6607 61.951C77.7381 61.9166 77.7381 61.9166 77.7381 61.9166C77.8231 61.8789 77.9101 61.8404 77.9312 61.8309C77.9523 61.8214 78.207 61.7116 78.4342 61.608C78.6611 61.5043 79.1109 61.3001 79.4335 61.1544L121.783 42.0149C122.106 41.8691 122.634 41.6303 122.956 41.4841L130.291 38.1732C130.614 38.0276 131.142 37.7894 131.465 37.6436L143.158 32.3602C143.48 32.2144 144.025 31.9944 144.368 31.8712C144.368 31.8712 144.676 31.7481 144.995 31.7009C145.314 31.6537 145.885 31.6643 146.264 31.7247L147.36 32.2394C147.584 32.4527 147.94 33.0594 147.961 33.2528Z" fill="#F0A642"/>
<path d="M148 88.6856V96.4712C148 96.5911 148 96.6942 147.974 96.7971C148 96.8657 147.974 96.9171 147.974 96.9858C147.974 96.9858 147.974 96.9858 147.974 97.003C147.793 97.363 146.968 97.5858 145.55 97.5858H13.4076L39.4235 82.1008L39.4492 82.0836L72.0142 62.7059L75.1857 60.8365L76.0362 60.3219L78.8467 61.4196L148 88.6856Z" fill="#CC8529"/>
<path d="M148 96.1797V96.4712C148 96.5911 148 96.6942 147.974 96.7971C148 96.8657 147.974 96.9171 147.974 96.9858C147.974 96.9858 147.974 96.9858 147.974 97.003C147.793 97.363 146.968 97.5858 145.55 97.5858H2.44952C1.03166 97.5858 0.206391 97.363 0.0257266 97.003C0.0257266 96.9858 0.0257266 96.9858 0.0257266 96.9858C0.0257266 96.9171 0 96.8657 0.0257266 96.7971C0 96.6942 0 96.5911 0 96.4712V96.1797C0.232117 95.9739 0.56743 95.7682 1.00565 95.5623L69.8228 61.9852C69.8485 61.9852 69.8485 61.9682 69.8745 61.9512C69.952 61.9168 70.0294 61.8825 70.1066 61.8483C71.5245 61.1793 72.9686 60.7162 74 60.5451C74.361 60.6135 74.7475 60.6992 75.1863 60.8365C76.0113 61.0594 76.9652 61.4196 77.8934 61.8483C77.9963 61.8996 78.0738 61.934 78.177 61.9852L146.994 95.5623C147.432 95.7852 147.767 95.9909 148 96.1797Z" fill="#F6AF47"/>
<defs>
<linearGradient id="paint0_linear_103_29" x1="74" y1="67.2677" x2="74" y2="2.11686e-05" gradientUnits="userSpaceOnUse">
<stop stop-color="#DA9621"/>
<stop offset="0.7685" stop-color="#EAA12F"/>
</linearGradient>
<linearGradient id="paint1_linear_103_29" x1="74.0002" y1="77.1343" x2="74.0002" y2="9.87378" gradientUnits="userSpaceOnUse">
<stop stop-color="#DA9621"/>
<stop offset="0.7685" stop-color="#EAA12F"/>
</linearGradient>
</defs>
</svg>
