<svg width="129" height="108" viewBox="0 0 129 108" fill="none" xmlns="http://www.w3.org/2000/svg">
<g clip-path="url(#clip0_102_10)">
<path d="M64.5 101.25C95.6696 101.25 120.938 80.0955 120.938 54C120.938 27.9045 95.6696 6.75 64.5 6.75C33.3304 6.75 8.0625 27.9045 8.0625 54C8.0625 80.0955 33.3304 101.25 64.5 101.25Z" fill="url(#paint0_linear_102_10)"/>
<g filter="url(#filter0_d_102_10)">
<path d="M85.5177 68.4504L88.0248 55.1141H72.3416V46.4636C72.3416 42.8142 74.5285 39.255 81.553 39.255H88.6875V27.9011C88.6875 27.9011 82.2153 27 76.0306 27C63.1084 27 54.6706 33.3887 54.6706 44.9496V55.1141H40.3125V68.4504H54.6706V100.691C57.5529 101.061 60.5018 101.25 63.5059 101.25C66.51 101.25 69.4592 101.061 72.3416 100.691V68.4504H85.5177Z" fill="white"/>
</g>
</g>
<defs>
<filter id="filter0_d_102_10" x="36.3125" y="27" width="56.375" height="82.25" filterUnits="userSpaceOnUse" color-interpolation-filters="sRGB">
<feFlood flood-opacity="0" result="BackgroundImageFix"/>
<feColorMatrix in="SourceAlpha" type="matrix" values="0 0 0 0 0 0 0 0 0 0 0 0 0 0 0 0 0 0 127 0" result="hardAlpha"/>
<feOffset dy="4"/>
<feGaussianBlur stdDeviation="2"/>
<feComposite in2="hardAlpha" operator="out"/>
<feColorMatrix type="matrix" values="0 0 0 0 0 0 0 0 0 0 0 0 0 0 0 0 0 0 0.25 0"/>
<feBlend mode="normal" in2="BackgroundImageFix" result="effect1_dropShadow_102_10"/>
<feBlend mode="normal" in="SourceGraphic" in2="effect1_dropShadow_102_10" result="shape"/>
</filter>
<linearGradient id="paint0_linear_102_10" x1="64.5" y1="6.75" x2="64.5" y2="100.97" gradientUnits="userSpaceOnUse">
<stop stop-color="#33A2DF"/>
<stop offset="1" stop-color="#0163E0"/>
</linearGradient>
<clipPath id="clip0_102_10">
<rect width="129" height="108" fill="white"/>
</clipPath>
</defs>
</svg>
