<svg width="186" height="48" viewBox="0 0 186 48" fill="none" xmlns="http://www.w3.org/2000/svg">
<path d="M0.69043 47V4.03125H13.7764L17.3896 30.2275L20.9785 4.03125H34.1865V47H26.3252V16.043L21.3936 47H13.6787L8.4541 16.043V47H0.69043Z" fill="#00FFFF" fill-opacity="0.7"/>
<path d="M44.5137 47.3906C42.4792 47.3906 40.9248 46.9186 39.8506 45.9746C38.7926 45.0306 38.0684 43.7367 37.6777 42.0928C37.2871 40.4489 37.0918 38.5853 37.0918 36.502C37.0918 34.2721 37.3115 32.4492 37.751 31.0332C38.1904 29.6009 38.9391 28.429 39.9971 27.5176C41.0713 26.6061 42.5443 25.833 44.416 25.1982L49.8359 23.3428V19.583C49.8359 17.6136 49.193 16.6289 47.9072 16.6289C46.7354 16.6289 46.1494 17.4264 46.1494 19.0215V21.2188H37.6533C37.637 21.0885 37.6289 20.9258 37.6289 20.7305C37.6289 20.5189 37.6289 20.2829 37.6289 20.0225C37.6289 16.3766 38.4834 13.7969 40.1924 12.2832C41.9176 10.7533 44.6439 9.98828 48.3711 9.98828C50.3242 9.98828 52.0739 10.3382 53.6201 11.0381C55.1663 11.7217 56.387 12.7389 57.2822 14.0898C58.1937 15.4408 58.6494 17.109 58.6494 19.0947V47H49.958V42.6543C49.5348 44.1842 48.835 45.3561 47.8584 46.1699C46.8818 46.9837 45.7669 47.3906 44.5137 47.3906ZM47.9561 40.6035C48.6722 40.6035 49.1605 40.3024 49.4209 39.7002C49.6813 39.098 49.8115 38.4469 49.8115 37.7471V27.542C48.6071 28.0303 47.6712 28.6488 47.0039 29.3975C46.3366 30.1299 46.0029 31.2122 46.0029 32.6445V37.3564C46.0029 39.5212 46.654 40.6035 47.9561 40.6035Z" fill="#00FFFF" fill-opacity="0.7"/>
<path d="M73.0293 47.3906C68.9277 47.3906 66.0143 46.3408 64.2891 44.2412C62.5801 42.1416 61.7256 39.0573 61.7256 34.9883V23.709C61.7256 20.6491 62.0511 18.1019 62.7021 16.0674C63.3532 14.0329 64.4925 12.5111 66.1201 11.502C67.7477 10.4928 70.0101 9.98828 72.9072 9.98828C74.9255 9.98828 76.7321 10.3464 78.3271 11.0625C79.9385 11.7786 81.208 12.8285 82.1357 14.2119C83.0635 15.5954 83.5273 17.2881 83.5273 19.29V24.8809H74.6162V19.7539C74.6162 18.9076 74.4941 18.1995 74.25 17.6299C74.0059 17.0439 73.4769 16.751 72.6631 16.751C71.2308 16.751 70.5146 17.7682 70.5146 19.8027V37.5518C70.5146 38.3005 70.6774 38.9922 71.0029 39.627C71.3285 40.2454 71.8656 40.5547 72.6143 40.5547C73.3792 40.5547 73.9082 40.2536 74.2012 39.6514C74.5104 39.0329 74.665 38.3167 74.665 37.5029V31.3506H83.5273V37.7471C83.5273 39.7653 83.0716 41.4987 82.1602 42.9473C81.265 44.3796 80.028 45.4782 78.4492 46.2432C76.8704 47.0081 75.0638 47.3906 73.0293 47.3906Z" fill="#00FFFF" fill-opacity="0.7"/>
<path d="M86.5791 47V10.3789H95.4658V14.4561C95.889 13.04 96.6377 11.9333 97.7119 11.1357C98.7861 10.3382 100.137 9.93945 101.765 9.93945V17.2393C101.049 17.2393 100.194 17.3206 99.2012 17.4834C98.2083 17.6299 97.3376 17.8415 96.5889 18.1182C95.8402 18.3786 95.4658 18.6715 95.4658 18.9971V47H86.5791Z" fill="#00FFFF" fill-opacity="0.7"/>
<path d="M114.558 47.3906C107.266 47.3906 103.62 43.6064 103.62 36.0381V21.3408C103.62 17.8903 104.589 15.1396 106.525 13.0889C108.462 11.0218 111.14 9.98828 114.558 9.98828C117.992 9.98828 120.677 11.0218 122.614 13.0889C124.551 15.1396 125.52 17.8903 125.52 21.3408V36.0381C125.52 43.6064 121.866 47.3906 114.558 47.3906ZM114.558 40.6523C115.29 40.6523 115.811 40.3919 116.12 39.8711C116.446 39.334 116.608 38.6585 116.608 37.8447V19.9492C116.608 17.8171 115.925 16.751 114.558 16.751C113.19 16.751 112.507 17.8171 112.507 19.9492V37.8447C112.507 38.6585 112.661 39.334 112.971 39.8711C113.296 40.3919 113.825 40.6523 114.558 40.6523Z" fill="#00FFFF" fill-opacity="0.7"/>
<path d="M128.913 47V4.03125H140.266C142.642 4.03125 144.522 4.56022 145.905 5.61816C147.305 6.67611 148.306 8.18164 148.908 10.1348C149.51 12.0879 149.812 14.4154 149.812 17.1172C149.812 19.7214 149.559 21.9919 149.055 23.9287C148.55 25.8493 147.647 27.3385 146.345 28.3965C145.059 29.4544 143.228 29.9834 140.852 29.9834H137.36V47H128.913ZM137.36 22.2686H137.849C139.444 22.2686 140.42 21.821 140.778 20.9258C141.136 20.0306 141.315 18.7122 141.315 16.9707C141.315 15.3431 141.136 14.0898 140.778 13.2109C140.437 12.3158 139.615 11.8682 138.312 11.8682H137.36V22.2686Z" fill="#00FFFF" fill-opacity="0.7"/>
<path d="M152.351 8.13281V0.857422H161.091V8.13281H152.351ZM152.351 47V10.3789H161.091V47H152.351Z" fill="#00FFFF" fill-opacity="0.7"/>
<path d="M174.812 47.3906C172.207 47.3906 170.132 46.9023 168.586 45.9258C167.04 44.9492 165.933 43.5413 165.266 41.7021C164.598 39.863 164.265 37.6494 164.265 35.0615V20.3398C164.265 16.9382 165.241 14.3665 167.194 12.625C169.147 10.8672 171.833 9.98828 175.251 9.98828C182.282 9.98828 185.798 13.4388 185.798 20.3398V23.001C185.798 26.2236 185.765 28.3883 185.7 29.4951H173.005V36.5752C173.005 37.2262 173.046 37.8691 173.127 38.5039C173.208 39.1224 173.387 39.6351 173.664 40.042C173.957 40.4489 174.421 40.6523 175.056 40.6523C175.967 40.6523 176.537 40.2617 176.765 39.4805C176.993 38.6829 177.106 37.6494 177.106 36.3799V32.8643H185.798V34.9395C185.798 37.6738 185.456 39.9688 184.772 41.8242C184.105 43.6634 182.966 45.055 181.354 45.999C179.759 46.9268 177.578 47.3906 174.812 47.3906ZM172.956 25.1494H177.106V20.2178C177.106 18.8994 176.944 17.9554 176.618 17.3857C176.293 16.7998 175.804 16.5068 175.153 16.5068C174.453 16.5068 173.908 16.7835 173.518 17.3369C173.143 17.8903 172.956 18.8506 172.956 20.2178V25.1494Z" fill="#00FFFF" fill-opacity="0.7"/>
</svg>
